#!OML:ASF X:\für Bonn\!DataBase\2005_08_11_Bastian_Final\c3d\Bastian.ASF
:FULLY-SPECIFIED
:DEGREES
31
root 24.1613 17.2666 -5.3543 537.074 -105.831 -190.633
lowerback 36.4831 -0.0694244 7.8816
upperback 18.7348 0.122666 5.71341
thorax 2.6446 -0.652224 1.8389
lowerneck 1.94506 -7.08059 -3.43161
upperneck 3.52021 -9.60387 5.2337
head 1.22634 -4.78512 2.15109
rclavicle 0 6.36111e-015
rhumerus 10.9857 11.8208 -71.2237
rradius 18.6685
rwrist -1.70672
rhand -26.0319 -3.67419
rfingers 7.12502
rthumb 0.514958 -33.6533
lclavicle 0 6.36111e-015
lhumerus -11.2193 -27.0154 91.9161
lradius 27.2111
lwrist 21.6159
lhand -12.8733 -6.26897
lfingers 7.12502
lthumb 13.2153 23.2921
rfemur -11.9571 -2.87317 24.4806
rtibia 32.6036
rfoot -0.516776 -8.46824
rtoes 8.24476
lfemur -11.8517 -0.121356 -16.4987
ltibia 51.7625
lfoot -8.20063 -10.0357
ltoes -23.0885
32
root 24.1389 17.2535 -5.3631 537.002 -105.934 -190.35
lowerback 37.244 -0.0697359 8.12598
upperback 18.9617 0.189038 5.82967
thorax 2.67213 -0.635359 1.83246
lowerneck 1.99475 -7.18093 -3.32923
upperneck 2.70887 -9.69996 5.20453
head 0.957209 -4.83857 2.1399
rclavicle -3.81667e-014 -7.31528e-014
rhumerus 12.1395 11.4554 -70.7077
rradius 18.4992
rwrist -1.71475
rhand -26.0798 -3.70423
rfingers 7.12502
rthumb 0.468641 -33.6835
lclavicle -3.81667e-014 -7.31528e-014
lhumerus -11.102 -27.3097 91.8484
lradius 27.5048
lwrist 21.5785
lhand -12.8973 -6.54202
lfingers 7.12502
lthumb 13.1922 23.0206
rfemur -12.3705 -3.03383 24.4491
rtibia 33.0846
rfoot -0.733509 -8.4317
rtoes 8.20964
lfemur -12.3742 -0.155615 -16.5835
ltibia 50.3241
lfoot -8.22394 -10.2257
ltoes -24.4328
33
root 24.1175 17.2414 -5.37045 536.904 -106.018 -189.988
lowerback 37.9656 -0.0687488 8.36279
upperback 19.1821 0.255542 5.9314
thorax 2.71128 -0.616372 1.81442
lowerneck 1.94031 -7.27776 -3.19145
upperneck 1.97386 -9.79382 5.12959
head 0.726923 -4.88969 2.10393
rclavicle -1.11319e-014 -7.95139e-015
rhumerus 13.2773 11.0664 -70.1895
rradius 18.3496
rwrist -1.70356
rhand -26.0834 -3.68582
rfingers 7.12502
rthumb 0.46521 -33.6651
lclavicle -1.11319e-014 -7.95139e-015
lhumerus -11.0117 -27.6887 91.7513
lradius 27.9165
lwrist 21.7035
lhand -12.9418 -6.76538
lfingers 7.12502
lthumb 13.1493 22.8
rfemur -12.8478 -3.17558 24.3871
rtibia 33.5711
rfoot -0.94693 -8.38071
rtoes 8.49114
lfemur -12.9031 -0.191955 -16.695
ltibia 48.918
lfoot -8.33597 -10.2196
ltoes -25.5461
34
root 24.0967 17.2309 -5.37686 536.818 -106.053 -189.65
lowerback 38.7301 -0.0595473 8.59959
upperback 19.3647 0.345718 6.02522
thorax 2.70199 -0.585862 1.78265
lowerneck 1.91102 -7.3706 -3.12825
upperneck 1.31706 -9.89065 5.11095
head 0.525348 -4.94308 2.09943
rclavicle 1.90833e-014 3.18055e-015
rhumerus 14.3226 10.8613 -69.6119
rradius 18.2577
rwrist -1.88587
rhand -26.1468 -3.73445
rfingers 7.12502
rthumb 0.403939 -33.7138
lclavicle 1.90833e-014 3.18055e-015
lhumerus -10.9916 -27.9648 91.6884
lradius 28.3513
lwrist 21.7795
lhand -12.8502 -6.98044
lfingers 7.12502
lthumb 13.2376 22.5792
rfemur -13.2979 -3.31939 24.3353
rtibia 34.0285
rfoot -1.1335 -8.28844
rtoes 8.41613
lfemur -13.4074 -0.178399 -16.796
ltibia 47.5803
lfoot -8.6356 -10.0747
ltoes -26.2315
35
root 24.077 17.2256 -5.3814 536.821 -106.091 -189.364
lowerback 39.4433 -0.0689855 8.88362
upperback 19.5616 0.42249 6.11555
thorax 2.73465 -0.556712 1.72697
lowerneck 1.79835 -7.46359 -3.0365
upperneck 0.668879 -9.98821 5.06174
head 0.33792 -4.99637 2.07767
rclavicle 9.54166e-015 -1.27222e-014
rhumerus 15.3878 10.5066 -69.0702
rradius 18.1479
rwrist -1.87146
rhand -26.1735 -3.7573
rfingers 7.12502
rthumb 0.378161 -33.7367
lclavicle 9.54166e-015 -1.27222e-014
lhumerus -10.9292 -28.2558 91.6057
lradius 28.7943
lwrist 21.8831
lhand -12.8136 -7.18506
lfingers 7.12502
lthumb 13.2729 22.3723
rfemur -13.7603 -3.51041 24.2918
rtibia 34.4392
rfoot -1.30457 -8.13521
rtoes 8.3699
lfemur -13.9598 -0.149741 -16.9004
ltibia 46.3176
lfoot -8.97633 -9.79619
ltoes -26.8005
36
root 24.0578 17.2218 -5.38633 536.672 -106.089 -188.929
lowerback 40.1108 -0.0421751 9.11683
upperback 19.817 0.509909 6.19342
thorax 2.85003 -0.524502 1.67983
lowerneck 1.56831 -7.547 -2.92989
upperneck 0.0621913 -10.075 5.0379
head 0.18375 -5.04344 2.05624
rclavicle 1.59028e-015 -6.36111e-015
rhumerus 16.506 10.1657 -68.494
rradius 18.0476
rwrist -1.94283
rhand -26.2082 -3.78887
rfingers 7.12502
rthumb 0.344641 -33.7683
lclavicle 1.59028e-015 -6.36111e-015
lhumerus -10.7815 -28.5865 91.4429
lradius 29.2961
lwrist 22.0474
lhand -12.723 -7.33749
lfingers 7.12502
lthumb 13.3602 22.2142
rfemur -14.1907 -3.62863 24.2037
rtibia 34.8018
rfoot -1.44699 -8.03725
rtoes 8.66827
lfemur -14.4967 -0.0713232 -17.0456
ltibia 45.1249
lfoot -9.12886 -9.41132
ltoes -27.0353
